<svg id="Layer_1" enable-background="new 0 0 512 512" height="512" viewBox="0 0 512 512" width="512" xmlns="http://www.w3.org/2000/svg"><g><g clip-rule="evenodd" fill-rule="evenodd"><path d="m79.811 7.513h211.609c16.016 0 29.141 13.096 29.141 29.111v438.752c0 16.017-13.125 29.141-29.141 29.141h-211.609c-16.016 0-29.112-13.124-29.112-29.141v-438.752c-.001-16.016 13.095-29.111 29.112-29.111z" fill="#cbe2ff"/><path d="m291.419 69.138h29.141v334.889h-29.141z" fill="#9dc6fb"/><path d="m320.56 69.138c-89.973 0-179.917 0-269.862 0v-32.514c0-16.016 13.096-29.111 29.112-29.111h211.609c16.016 0 29.141 13.096 29.141 29.111zm0 334.889c-89.973 0-179.917 0-269.862 0v71.349c0 16.017 13.096 29.141 29.112 29.141h211.609c16.016 0 29.141-13.124 29.141-29.141z" fill="#407093"/><path d="m320.56 69.138h-29.141v-32.514c0-16.016-13.096-29.111-29.112-29.111h29.112c16.016 0 29.141 13.096 29.141 29.111zm0 334.889h-29.141v71.349c0 16.017-13.096 29.141-29.112 29.141h29.112c16.016 0 29.141-13.124 29.141-29.141z" fill="#365e7d"/><path d="m185.629 475.376c11.623 0 21.09-9.467 21.09-21.089 0-11.65-9.468-21.119-21.09-21.119-11.65 0-21.118 9.468-21.118 21.119 0 11.622 9.468 21.089 21.118 21.089z" fill="#2b4d66"/><path d="m219.645 104.969h226.066c8.561 0 15.591 7.001 15.591 15.591v160.755c0 8.56-7.03 15.59-15.591 15.59h-161.01c-3.883 0-7.171 1.333-9.95 4.11l-41.273 41.273c-2.693 2.693-4.11 2.041-4.11-1.701v-37.872c0-3.543-1.899-5.811-5.839-5.811h-3.884c-8.561 0-15.59-7.03-15.59-15.59v-160.754c0-8.59 7.03-15.591 15.59-15.591z" fill="#f9f6f6"/><path d="m416.599 104.969h29.112c8.561 0 15.591 7.001 15.591 15.591v160.755c0 8.56-7.03 15.59-15.591 15.59h-29.112c8.561 0 15.591-7.03 15.591-15.59v-160.755c-.001-8.59-7.03-15.591-15.591-15.591z" fill="#e2d8ec"/><path d="m332.692 153.016c41.812 0 75.714 33.903 75.714 75.715h-151.428c0-41.812 33.875-75.715 75.714-75.715z" fill="#d5c6e4"/><path d="m408.407 228.731c0 17.575-14.4 31.947-31.947 31.947h-87.535c-17.575 0-31.947-14.372-31.947-31.947z" fill="#d5c6e4"/><path d="m127.122 104.969c26.135 0 47.339 22.111 47.339 47.31 0 25.201-26.674 56.722-43.569 76.848-2.495 2.977-4.933 3.062-7.512 0-16.98-20.069-43.569-51.647-43.569-76.848 0-25.199 21.174-47.31 47.311-47.31z" fill="#dd636e"/><path d="m127.122 104.969c26.135 0 47.339 22.111 47.339 47.31 0 25.201-26.674 56.722-43.569 76.848-2.495 2.977-4.933 3.062-7.512 0-3.345-3.94-7.031-8.306-10.829-13.011 15.534-19.22 32.769-43.569 32.769-63.837 0-20.296-13.748-38.608-32.741-44.958 4.592-1.531 9.468-2.352 14.543-2.352z" fill="#dd636e"/><path d="m127.122 169.996c9.779 0 17.716-7.965 17.716-17.717 0-9.751-7.937-17.716-17.716-17.716-9.752 0-17.717 7.965-17.717 17.716-.001 9.752 7.965 17.717 17.717 17.717z" fill="#ffe07d"/><g fill="#c6b4da"><path d="m378.926 221.446h29.112c-4.309-45.298-46.857-75.403-89.916-67.04 32.57 6.349 57.601 33.533 60.804 67.04z"/><path d="m378.444 236.016c-3.316 14.089-16.044 24.662-31.125 24.662h29.141c15.052 0 27.78-10.573 31.096-24.662z"/></g></g><path d="m328.043 304.388v99.639 71.349c0 10.092-4.11 19.248-10.743 25.881s-15.789 10.743-25.881 10.743h-211.608c-10.092 0-19.248-4.11-25.881-10.743s-10.743-15.789-10.743-25.881v-71.349-122.6c0-4.139 3.373-7.512 7.512-7.512s7.483 3.374 7.483 7.512v115.116h254.866v-92.156h-31.068l-47.311 47.311c-2.948 2.948-7.682 2.948-10.602 0-1.474-1.446-2.211-3.373-2.211-5.301v-42.01h-2.211c-6.35 0-12.132-2.579-16.299-6.774-4.195-4.167-6.775-9.95-6.775-16.299v-160.754c0-6.378 2.58-12.133 6.775-16.328 4.166-4.195 9.949-6.774 16.299-6.774h93.403v-20.808h-254.866v170.79c0 4.167-3.345 7.512-7.483 7.512-4.139 0-7.512-3.345-7.512-7.512v-210.816c0-10.091 4.11-19.247 10.743-25.88 6.633-6.633 15.789-10.744 25.881-10.744h211.609c10.091 0 19.247 4.111 25.881 10.744 6.633 6.633 10.743 15.789 10.743 25.88v60.833h117.667c6.35 0 12.132 2.579 16.299 6.774 4.195 4.195 6.803 9.95 6.803 16.328v160.755c0 6.35-2.608 12.132-6.803 16.299-4.167 4.195-9.95 6.774-16.299 6.774h-117.668zm-98.675 63.327c4.139 0 7.484 3.373 7.484 7.512s-3.345 7.483-7.484 7.483h-117.327c-9.723 0-18.567-3.968-24.973-10.374s-10.376-15.251-10.376-24.974c0-9.751 3.969-18.596 10.376-25.002 6.406-6.406 15.25-10.375 24.973-10.375h33.308c5.585 0 10.658-2.296 14.372-5.981 3.685-3.714 5.981-8.788 5.981-14.372 0-5.612-2.296-10.686-5.981-14.4-3.714-3.685-8.788-5.981-14.372-5.981h-18.226c-4.139 0-7.484-3.345-7.484-7.512 0-4.139 3.345-7.483 7.484-7.483h18.226c9.723 0 18.567 3.968 24.974 10.375 6.406 6.406 10.375 15.251 10.375 25.002 0 9.723-3.969 18.567-10.375 24.974-6.406 6.406-15.251 10.375-24.974 10.375h-33.308c-5.584 0-10.687 2.296-14.372 5.981-3.685 3.713-5.981 8.788-5.981 14.4 0 5.584 2.296 10.687 5.981 14.372s8.788 5.981 14.372 5.981h117.327zm-102.246-240.664c6.973 0 13.266 2.835 17.83 7.398 4.564 4.564 7.398 10.857 7.398 17.83 0 6.974-2.835 13.267-7.398 17.831-4.564 4.563-10.857 7.37-17.83 7.37-6.945 0-13.267-2.807-17.831-7.37-4.564-4.564-7.37-10.857-7.37-17.831 0-6.973 2.806-13.266 7.37-17.83 4.564-4.563 10.886-7.398 17.831-7.398zm7.228 18c-1.842-1.842-4.394-2.976-7.228-2.976-2.807 0-5.358 1.134-7.2 2.976-1.871 1.843-3.005 4.394-3.005 7.229 0 2.806 1.134 5.386 3.005 7.229 1.842 1.842 4.394 2.976 7.2 2.976 2.834 0 5.386-1.134 7.228-2.976 1.843-1.843 3.005-4.423 3.005-7.229 0-2.835-1.163-5.386-3.005-7.229zm-7.228-47.594c15.137 0 28.856 6.123 38.778 16.044 9.921 9.921 16.044 23.641 16.044 38.778 0 28.63-31.21 64.999-49.097 86.118-3.033 3.6-8.561 3.515-11.508-.085-17.859-21.119-49.041-57.431-49.041-86.033 0-15.137 6.151-28.857 16.073-38.778s23.613-16.044 38.751-16.044zm28.176 26.674c-7.2-7.229-17.178-11.679-28.176-11.679-10.999 0-20.949 4.45-28.149 11.679-7.2 7.2-11.65 17.15-11.65 28.148 0 20.778 23.499 50.288 39.799 69.705 16.327-19.418 39.827-48.927 39.827-69.705 0-10.998-4.451-20.948-11.651-28.148zm169.883 21.714v-8.362c0-4.139 3.345-7.512 7.512-7.512 4.139 0 7.483 3.373 7.483 7.512v8.362c19.985 1.786 37.956 10.63 51.336 24.038 13.408 13.408 22.253 31.352 24.038 51.336h3.997c4.167 0 7.512 3.374 7.512 7.512s-3.345 7.483-7.512 7.483h-4.365c-1.531 7.88-5.415 14.911-10.857 20.381-7.143 7.144-17.008 11.565-27.865 11.565h-87.535c-10.856 0-20.722-4.422-27.865-11.565-5.471-5.471-9.354-12.501-10.885-20.381h-4.365c-4.139 0-7.512-3.345-7.512-7.483 0-4.139 3.373-7.512 7.512-7.512h3.997c.652-7.115 2.211-14.003 4.536-20.58 3.288-9.1 8.079-17.462 14.088-24.775 2.636-3.175 7.342-3.629 10.517-1.021 3.203 2.636 3.657 7.342 1.02 10.517-4.933 6.009-8.873 12.869-11.537 20.325-1.786 4.904-2.977 10.12-3.572 15.534h135.64c-1.729-15.846-8.901-30.048-19.588-40.734-12.331-12.331-29.396-19.984-48.218-19.984-5.074 0-10.006.539-14.712 1.588-4.876 1.077-9.525 2.664-13.918 4.677-3.77 1.729-8.221.085-9.95-3.656-1.729-3.742-.085-8.193 3.685-9.922 5.386-2.495 11.083-4.451 17.008-5.754 3.401-.739 6.859-1.277 10.375-1.589zm68.542 100.149c2.693-2.721 4.791-6.066 5.981-9.78h-134.052c1.219 3.714 3.288 7.059 6.01 9.78 4.422 4.422 10.545 7.172 17.263 7.172h87.535c6.689 0 12.812-2.75 17.263-7.172zm51.988-133.542h-226.066c-2.211 0-4.224.907-5.697 2.381-1.474 1.474-2.381 3.487-2.381 5.727v160.755c0 2.211.907 4.224 2.381 5.698s3.486 2.381 5.697 2.381h9.723c4.139 0 7.484 3.373 7.484 7.512v31.38l36.68-36.653c1.361-1.389 3.232-2.239 5.33-2.239h166.849c2.211 0 4.224-.907 5.698-2.381s2.381-3.487 2.381-5.698v-160.755c0-2.24-.907-4.253-2.381-5.727s-3.487-2.381-5.698-2.381zm-282.901-66.615c-4.139 0-7.512-3.373-7.512-7.512s3.374-7.512 7.512-7.512h45.61c4.139 0 7.512 3.373 7.512 7.512s-3.373 7.512-7.512 7.512zm22.819 379.819c7.88 0 15.053 3.203 20.211 8.391 5.188 5.188 8.391 12.331 8.391 20.24 0 7.88-3.203 15.052-8.391 20.211-5.159 5.188-12.331 8.391-20.211 8.391-7.909 0-15.052-3.203-20.239-8.391-5.188-5.16-8.391-12.331-8.391-20.211 0-7.909 3.204-15.052 8.391-20.24s12.33-8.391 20.239-8.391zm9.609 18.992c-2.466-2.466-5.868-3.997-9.609-3.997-3.77 0-7.171 1.531-9.638 3.997-2.466 2.466-3.997 5.868-3.997 9.638 0 3.741 1.531 7.143 3.997 9.609s5.868 3.997 9.638 3.997c3.742 0 7.144-1.531 9.609-3.997 2.466-2.466 3.997-5.868 3.997-9.609.001-3.77-1.53-7.171-3.997-9.638zm-137.056-382.993h254.866v-25.031c0-5.924-2.438-11.338-6.35-15.25-3.94-3.94-9.326-6.378-15.279-6.378h-211.608c-5.925 0-11.339 2.437-15.251 6.378-3.94 3.912-6.378 9.326-6.378 15.25zm0 349.885v63.836c0 5.953 2.438 11.368 6.378 15.279 3.912 3.912 9.326 6.35 15.251 6.35h211.609c5.953 0 11.338-2.438 15.279-6.35 3.912-3.912 6.35-9.326 6.35-15.279v-63.836z"/></g></svg>